<svg width="315" height="64" viewBox="0 0 315 64" fill="none" xmlns="http://www.w3.org/2000/svg">
<path d="M314.773 35.6998V47.1798H295.593V41.7198C292.233 46.0131 288.033 48.1598 282.993 48.1598C279.12 48.1598 276.203 46.9464 274.243 44.5198C272.33 42.0931 271.373 38.7564 271.373 34.5098V19.7398H268.293V8.25977H287.473V31.2198C287.473 32.7598 287.8 33.9031 288.453 34.6498C289.153 35.3498 290.18 35.6998 291.533 35.6998C292.886 35.6998 293.89 35.3498 294.543 34.6498C295.243 33.9031 295.593 32.7598 295.593 31.2198V19.7398H291.813V8.25977H311.693V35.6998H314.773Z" fill="black"/>
<path d="M242.022 63.6993C238.662 63.6993 235.442 63.466 232.362 62.9993C229.329 62.5326 226.972 61.996 225.292 61.3893V49.9093C230.239 50.796 234.672 51.2393 238.592 51.2393C241.252 51.2393 243.165 50.8193 244.332 49.9793C245.545 49.186 246.152 47.6693 246.152 45.4293V42.4193C244.985 43.9126 243.469 45.2426 241.602 46.4093C239.782 47.576 237.682 48.1593 235.302 48.1593C230.542 48.1593 226.949 46.386 224.522 42.8393C222.142 39.2926 220.952 34.2526 220.952 27.7193C220.952 21.186 222.142 16.146 224.522 12.5993C226.949 9.05263 230.542 7.2793 235.302 7.2793C237.682 7.2793 239.782 7.86263 241.602 9.0293C243.469 10.196 244.985 11.526 246.152 13.0193V8.25929H265.332V19.7393H262.252V44.3793C262.252 51.146 260.572 56.046 257.212 59.0793C253.852 62.1593 248.789 63.6993 242.022 63.6993ZM242.092 35.6993C243.445 35.6993 244.449 35.3493 245.102 34.6493C245.802 33.9026 246.152 32.7593 246.152 31.2193V24.2193C246.152 22.6793 245.802 21.5593 245.102 20.8593C244.449 20.1126 243.445 19.7393 242.092 19.7393C240.739 19.7393 239.712 20.1126 239.012 20.8593C238.359 21.5593 238.032 22.6793 238.032 24.2193V31.2193C238.032 32.7593 238.359 33.9026 239.012 34.6493C239.712 35.3493 240.739 35.6993 242.092 35.6993Z" fill="black"/>
<path d="M218.184 35.6998V47.1798H199.004V41.7198C195.644 46.0131 191.444 48.1598 186.404 48.1598C182.531 48.1598 179.614 46.9464 177.654 44.5198C175.741 42.0931 174.784 38.7564 174.784 34.5098V19.7398H171.704V8.25977H190.884V31.2198C190.884 32.7598 191.211 33.9031 191.864 34.6498C192.564 35.3498 193.591 35.6998 194.944 35.6998C196.297 35.6998 197.301 35.3498 197.954 34.6498C198.654 33.9031 199.004 32.7598 199.004 31.2198V19.7398H195.224V8.25977H215.104V35.6998H218.184Z" fill="black"/>
<path d="M145.433 63.6993C142.073 63.6993 138.853 63.466 135.773 62.9993C132.74 62.5326 130.383 61.996 128.703 61.3893V49.9093C133.65 50.796 138.083 51.2393 142.003 51.2393C144.663 51.2393 146.577 50.8193 147.743 49.9793C148.957 49.186 149.563 47.6693 149.563 45.4293V42.4193C148.397 43.9126 146.88 45.2426 145.013 46.4093C143.193 47.576 141.093 48.1593 138.713 48.1593C133.953 48.1593 130.36 46.386 127.933 42.8393C125.553 39.2926 124.363 34.2526 124.363 27.7193C124.363 21.186 125.553 16.146 127.933 12.5993C130.36 9.05263 133.953 7.2793 138.713 7.2793C141.093 7.2793 143.193 7.86263 145.013 9.0293C146.88 10.196 148.397 11.526 149.563 13.0193V8.25929H168.743V19.7393H165.663V44.3793C165.663 51.146 163.983 56.046 160.623 59.0793C157.263 62.1593 152.2 63.6993 145.433 63.6993ZM145.503 35.6993C146.857 35.6993 147.86 35.3493 148.513 34.6493C149.213 33.9026 149.563 32.7593 149.563 31.2193V24.2193C149.563 22.6793 149.213 21.5593 148.513 20.8593C147.86 20.1126 146.857 19.7393 145.503 19.7393C144.15 19.7393 143.123 20.1126 142.423 20.8593C141.77 21.5593 141.443 22.6793 141.443 24.2193V31.2193C141.443 32.7593 141.77 33.9026 142.423 34.6493C143.123 35.3493 144.15 35.6993 145.503 35.6993Z" fill="black"/>
<path d="M109.231 48.16C104.285 48.16 100.551 46.97 98.0312 44.59C95.5579 42.1633 94.3212 38.1033 94.3212 32.41V19.74H91.2412V8.25999C93.0145 8.25999 94.3445 7.81666 95.2312 6.93C96.1179 5.99666 96.5612 4.73667 96.5612 3.15V0H111.401V8.25999H120.851V19.74H111.401V31.22C111.401 32.76 111.728 33.9033 112.381 34.65C113.081 35.35 114.108 35.7 115.461 35.7C117.235 35.7 119.171 35.49 121.271 35.07V46.06C119.965 46.5733 118.191 47.04 115.951 47.46C113.758 47.9267 111.518 48.16 109.231 48.16Z" fill="black"/>
<path d="M44.1865 51.2393H47.2665V19.7393H44.1865V8.25929H63.3665V13.0193C64.5332 11.526 66.0265 10.196 67.8465 9.0293C69.7132 7.86263 71.8365 7.2793 74.2165 7.2793C78.9765 7.2793 82.5465 9.05263 84.9265 12.5993C87.3532 16.146 88.5665 21.186 88.5665 27.7193C88.5665 34.2526 87.3532 39.2926 84.9265 42.8393C82.5465 46.386 78.9765 48.1593 74.2165 48.1593C71.8365 48.1593 69.7132 47.576 67.8465 46.4093C66.0265 45.2426 64.5332 43.9126 63.3665 42.4193V51.2393H68.1965V62.7193H44.1865V51.2393ZM67.4265 35.6993C68.7799 35.6993 69.7832 35.3493 70.4365 34.6493C71.1365 33.9026 71.4865 32.7593 71.4865 31.2193V24.2193C71.4865 22.6793 71.1365 21.5593 70.4365 20.8593C69.7832 20.1126 68.7799 19.7393 67.4265 19.7393C66.0732 19.7393 65.0465 20.1126 64.3465 20.8593C63.6932 21.5593 63.3665 22.6793 63.3665 24.2193V31.2193C63.3665 32.7593 63.6932 33.9026 64.3465 34.6493C65.0465 35.3493 66.0732 35.6993 67.4265 35.6993Z" fill="black"/>
<path d="M40.81 35.6993V47.1793H22.33V42.4193C21.3033 43.9126 19.8567 45.2426 17.99 46.4093C16.17 47.576 13.93 48.1593 11.27 48.1593C7.77 48.1593 5.01667 47.226 3.01 45.3593C1.00333 43.4926 0 40.856 0 37.4493C0 28.6293 7.49 24.1026 22.47 23.8693C22.33 22.2826 21.7233 21.2093 20.65 20.6493C19.5767 20.0426 17.7567 19.7393 15.19 19.7393C13.09 19.7393 10.8267 19.9726 8.4 20.4393C6.02 20.8593 3.82667 21.4426 1.82 22.1893V9.3093C4.29333 8.70263 6.97667 8.21263 9.87 7.83929C12.7633 7.46596 15.5867 7.2793 18.34 7.2793C25.2933 7.2793 30.2633 8.53929 33.25 11.0593C36.2367 13.5793 37.73 17.476 37.73 22.7493V35.6993H40.81ZM22.33 30.7993C20.23 30.7993 18.5967 31.0793 17.43 31.6393C16.31 32.1993 15.75 33.1326 15.75 34.4393C15.75 35.2326 15.9833 35.886 16.45 36.3993C16.9633 36.866 17.6633 37.0993 18.55 37.0993C19.7633 37.0993 20.6967 36.586 21.35 35.5593C22.0033 34.5326 22.33 33.086 22.33 31.2193V30.7993Z" fill="black"/>
</svg>
